<?xml version="1.0" encoding="UTF-8"?><svg id="a" xmlns="http://www.w3.org/2000/svg" width="5in" height="1.5in" viewBox="0 0 360 108"><path d="M327.81,55.09l3.73-8.27c.73-1.63.97-1.98,1.74-2.18v-.56s-3.91,0-3.91,0v.56c1.29.28,1.43.93.84,2.32l-1.5,3.59-1.87-4.22c-.4-.93-.34-1.47,1.03-1.63v-.61s-5.21,0-5.21,0v.61c.62.16.85.41,1.39,1.52l3.32,7.13-.55,1.19c-.32.69-.61,1.21-.95,1.51-.24-.81-.7-1.25-1.41-1.25s-1.33.48-1.33,1.41c0,.93.76,1.62,1.65,1.62,1.27,0,2.06-.64,3.03-2.76M322.51,52.6l-.3-.63c-.53.24-1.01.36-1.43.36-.93,0-1.17-.47-1.17-1.13v-5.97s2.51,0,2.51,0v-1.13s-2.52,0-2.52,0v-1.84s-.36,0-.36,0l-3.56,2.35v.63s1.45,0,1.45,0v6.48c.01,1.29.75,1.98,2.2,1.98,1.13,0,2.24-.38,3.19-1.1M314.98,52.89c-1.23-.18-1.41-.43-1.41-1.52v-7.59s-.98,0-.98,0l-2.91,1.91v.44s1.41,0,1.41,0v5.25c.01,1.09-.19,1.35-1.4,1.53v.61s5.29,0,5.29,0v-.61ZM312.15,42.29c.83,0,1.51-.68,1.5-1.53,0-.75-.58-1.37-1.35-1.37-.87,0-1.53.68-1.52,1.51,0,.77.58,1.39,1.37,1.39M308.69,50.6c0-1.84-1.53-2.42-2.96-2.87-1.41-.45-2.38-.75-2.38-1.78,0-.56.41-1.07,1.23-1.07,1.01,0,1.9.61,2.98,1.82l.52-.24-.76-2.46h-.32s-.36.3-.36.3c-.56-.24-1.19-.37-1.86-.37-2.1,0-3.47,1.22-3.46,3.04s1.53,2.38,2.96,2.85c1.41.47,2.38.75,2.38,1.8,0,.65-.49,1.15-1.45,1.15-1.33,0-2.34-.87-3.55-2.41l-.53.2.78,3.09h.34s.57-.42.57-.42c.65.32,1.39.49,2.2.49,2.02,0,3.69-1.2,3.68-3.12M298.37,52.92c-1.29-.2-1.47-.47-1.47-1.7v-4.08c.39-.71.76-1.23,1.16-1.59,0,.77.54,1.27,1.21,1.27s1.33-.54,1.33-1.57c0-.87-.5-1.41-1.37-1.41-.97,0-1.72.82-2.43,1.97v-2s-.88,0-.88,0l-2.87,1.89v.44s1.37,0,1.37,0v5.27c.01,1.09-.17,1.37-1.3,1.53v.61s5.25,0,5.25,0v-.61ZM285.95,47.55c0-1.61.67-2.56,1.98-2.56.91,0,1.49.65,1.73,1.94l-3.69,1.28c-.02-.22-.02-.44-.02-.65M292.16,51.76l-.54-.42c-.53.62-1.35,1.03-2.28,1.03-1.82,0-2.86-1.38-3.24-3.19l5.94-1.99c-.12-2.1-1.67-3.25-3.63-3.24-2.76,0-4.77,2.23-4.77,4.98s1.75,4.81,4.83,4.81c1.88,0,3.01-.84,3.68-1.99M281.77,46.9c.73-1.63.97-1.98,1.74-2.18v-.56s-3.91,0-3.91,0v.56c1.29.28,1.43.93.84,2.32l-1.5,3.59-1.87-4.22c-.4-.93-.34-1.47,1.03-1.63v-.61s-5.21,0-5.21,0v.61c.62.16.87.41,1.39,1.52l3.4,7.35h1.03s3.06-6.77,3.06-6.77ZM272.72,52.96c-1.23-.18-1.41-.43-1.41-1.52v-7.59s-.98,0-.98,0l-2.91,1.91v.44s1.41,0,1.41,0v5.25c.01,1.09-.19,1.35-1.4,1.53v.61s5.29,0,5.29,0v-.61ZM269.88,42.36c.83,0,1.51-.68,1.5-1.53,0-.75-.58-1.37-1.35-1.37-.87,0-1.53.68-1.52,1.51,0,.77.58,1.39,1.37,1.39M259.89,52.99c-1.13-.16-1.31-.43-1.31-1.52v-4.58c.98-.89,1.79-1.33,2.51-1.33.97,0,1.25.49,1.25,1.39v4.52c0,1.09-.17,1.37-1.3,1.53v.61s5.1,0,5.1,0v-.61c-1.13-.16-1.31-.43-1.31-1.52v-4.74c-.01-1.59-.69-2.71-2.69-2.71-1.23,0-2.44.76-3.62,1.77v-1.9s-.92,0-.92,0l-2.87,1.89v.44s1.37,0,1.37,0v5.27c.01,1.09-.17,1.37-1.3,1.53v.61s5.1,0,5.1,0v-.61ZM238.26,41.37v5.95c.02,3.85,2.02,6.52,7.08,6.51,5.06,0,7.05-2.69,7.05-6.46v-4.78c-.01-2.32.64-2.92,1.77-3.23v-.61s-4.8,0-4.8,0v.61c1.13.32,1.79.91,1.79,3.23v4.78c.01,3.35-1.75,4.9-5.08,4.91s-5.1-1.54-5.1-4.89v-6.03c-.01-1.51.42-1.77,1.67-1.95v-.65s-6.03.01-6.03.01v.65c1.25.18,1.65.43,1.65,1.94"/><path d="M222.38,53.06c-1.13-.16-1.31-.43-1.31-1.52v-4.58c.98-.89,1.79-1.33,2.51-1.33.97,0,1.25.49,1.25,1.39v4.52c0,1.09-.17,1.37-1.3,1.53v.61s5.1,0,5.1,0v-.61c-1.13-.16-1.31-.43-1.31-1.52v-4.74c-.01-1.59-.69-2.71-2.69-2.71-1.23,0-2.44.76-3.62,1.77v-1.9s-.92,0-.92,0l-2.87,1.89v.44s1.37,0,1.37,0v5.27c.01,1.09-.17,1.37-1.3,1.53v.61s5.1,0,5.1,0v-.61ZM214.49,53.07c-1.29-.2-1.47-.47-1.47-1.7v-4.08c.39-.71.76-1.23,1.16-1.59,0,.77.54,1.27,1.21,1.27s1.33-.54,1.33-1.57c0-.87-.5-1.41-1.37-1.41-.97,0-1.72.82-2.43,1.97v-2s-.88,0-.88,0l-2.87,1.89v.44s1.37,0,1.37,0v5.27c.01,1.09-.17,1.37-1.3,1.53v.61s5.25,0,5.25,0v-.61ZM202.07,47.7c0-1.61.67-2.56,1.98-2.56.91,0,1.49.65,1.73,1.94l-3.69,1.28c-.02-.22-.02-.44-.02-.65M208.29,51.91l-.54-.42c-.53.62-1.35,1.03-2.28,1.03-1.82,0-2.86-1.38-3.24-3.19l5.94-1.99c-.12-2.1-1.67-3.25-3.63-3.24-2.76,0-4.77,2.23-4.77,4.98,0,2.74,1.75,4.81,4.83,4.81,1.88,0,3.01-.84,3.68-1.99M199.13,52.82l-.3-.63c-.53.24-1.01.36-1.43.36-.93,0-1.17-.47-1.17-1.13v-5.97s2.51,0,2.51,0v-1.13s-2.52,0-2.52,0v-1.84s-.36,0-.36,0l-3.56,2.35v.63s1.45,0,1.45,0v6.48c.01,1.29.75,1.98,2.2,1.98,1.13,0,2.24-.38,3.19-1.1M191.63,50.81c0-1.84-1.53-2.42-2.96-2.87-1.41-.45-2.38-.75-2.38-1.78,0-.56.41-1.07,1.23-1.07,1.01,0,1.9.61,2.98,1.82l.52-.24-.76-2.46h-.32s-.36.3-.36.3c-.56-.24-1.19-.37-1.86-.37-2.1,0-3.47,1.22-3.46,3.04,0,1.84,1.53,2.38,2.96,2.85,1.41.47,2.38.75,2.38,1.8,0,.65-.49,1.15-1.45,1.15-1.33,0-2.34-.87-3.55-2.41l-.53.2.78,3.09h.34s.57-.42.57-.42c.65.32,1.39.49,2.2.49,2.02,0,3.69-1.2,3.68-3.12M176.37,51.22c0-1.01.45-1.49,2.77-2.13v2.87c-.55.44-1.04.64-1.54.64-.77,0-1.23-.41-1.23-1.39M180.73,53.87c.85,0,1.76-.4,2.36-.82l-.18-.55c-.97.18-1.33.04-1.33-.61v-5.29c-.01-1.59-.71-2.44-2.95-2.43-2.52,0-4.36,1.36-4.36,2.62,0,.61.42,1.13,1.13,1.13.81,0,1.21-.54,1.33-1.07.12-.61-.08-1.07-.38-1.33.5-.24.99-.36,1.51-.36.85,0,1.27.3,1.27,1.07v1.98c-3.54.88-5.17,1.65-5.16,3.54,0,1.45.94,2.22,2.4,2.22.93,0,2-.4,2.91-1.12.14.65.6,1.03,1.45,1.03M166.67,47.76c0-1.61.67-2.56,1.98-2.56.91,0,1.49.65,1.73,1.94l-3.69,1.28c-.02-.22-.02-.44-.02-.65M172.88,51.98l-.54-.42c-.53.62-1.35,1.03-2.28,1.03-1.82,0-2.86-1.38-3.24-3.19l5.94-1.99c-.12-2.1-1.67-3.25-3.63-3.24-2.76,0-4.77,2.23-4.77,4.98s1.75,4.81,4.83,4.81c1.88,0,3.01-.84,3.68-1.99M157.1,53.17c-1.13-.16-1.31-.43-1.31-1.52v-4.6c.94-.87,1.67-1.31,2.51-1.31.97,0,1.25.49,1.25,1.39v4.52c0,1.09-.17,1.37-1.3,1.53v.61s5.1,0,5.1,0v-.61c-1.13-.16-1.31-.43-1.31-1.52v-4.74c-.01-1.59-.69-2.71-2.69-2.71-1.21,0-2.4.72-3.57,1.71v-7.85s-.75,0-.75,0l-3.19,2.09v.44s1.45,0,1.45,0l.02,11.08c0,1.09-.18,1.37-1.31,1.53v.61s5.1,0,5.1,0v-.61ZM151.41,52.91l-.3-.63c-.53.24-1.01.36-1.43.36-.93,0-1.17-.47-1.17-1.13v-5.97s2.51,0,2.51,0v-1.13s-2.52,0-2.52,0v-1.84s-.36,0-.36,0l-3.56,2.35v.63s1.45,0,1.45,0v6.48c.01,1.29.75,1.98,2.2,1.98,1.13,0,2.24-.38,3.19-1.1M141.7,53.2c-1.29-.2-1.47-.47-1.47-1.7v-4.08c.39-.71.76-1.23,1.16-1.59,0,.77.54,1.27,1.21,1.27s1.33-.54,1.33-1.57c0-.87-.5-1.41-1.37-1.41-.97,0-1.72.82-2.43,1.97v-2s-.88,0-.88,0l-2.87,1.89v.44s1.37,0,1.37,0v5.27c.01,1.09-.17,1.37-1.3,1.53v.61s5.25,0,5.25,0v-.61ZM127.38,48.13c0-1.78.77-2.92,2.39-2.92,2.1,0,2.72,2.57,2.72,4.93,0,1.78-.77,2.92-2.39,2.92-2.1,0-2.72-2.57-2.72-4.93M134.97,49.01c0-2.6-1.75-4.77-4.94-4.77-3.21,0-5.13,2.33-5.13,5.02s1.75,4.77,4.94,4.77c3.21,0,5.13-2.33,5.13-5.02M122.04,42.83c0-2.32.65-2.92,1.78-3.23v-.61s-4.8,0-4.8,0v.61c1.13.32,1.79.91,1.79,3.23v6.98s-10.12-10.19-10.12-10.19c-.56-.55-.77-.61-1.13-.61h-3.75s0,.62,0,.62c.81.08,1.29.39,2.22,1.28.3.28.58.61.58,1.17v7.95c.02,2.32-.63,2.92-1.76,3.23v.61s4.8,0,4.8,0v-.61c-1.13-.32-1.79-.91-1.79-3.23v-7.49s11.39,11.42,11.39,11.42h.81s-.02-11.12-.02-11.12Z"/><path d="M93.69,34.7c0-9.7,3.26-12.88,9.78-15.34v-1.59h-21.38v1.59c6.52,2.46,9.78,5.64,9.78,15.34v28.46L46.62,19.91c-2.07-1.91-2.62-2.15-3.97-2.15h-17.01v1.59c3.74.4,5.96,1.43,11.37,6.68l2.07,1.99v32.43c0,9.7-3.26,12.88-9.78,15.34v1.59h21.38v-1.59c-6.52-2.46-9.78-5.64-9.78-15.34v-30.92l51.2,48.25h1.59v-43.09Z" fill="#c8102e"/><path d="M119.49,67.39l-3.4.86c-.58-1.42-1.42-2.12-2.92-2.12-2.04,0-3.3,1.58-3.3,4.42s1.18,4.5,3.36,4.5c1.7,0,2.62-.86,3.22-2.44l3.34,1c-1.12,2.86-3.68,4.34-6.68,4.34-3.54,0-6.88-2.14-6.88-7.38s3.34-7.34,6.92-7.34c2.68,0,5.16,1.1,6.34,4.16Z"/><path d="M132.25,72.23c0,3.38-2.24,5.64-5.78,5.64s-5.78-2.34-5.78-5.64,2.16-5.64,5.78-5.64,5.78,2.42,5.78,5.64ZM124.21,72.19c0,2.04.84,3.06,2.26,3.06s2.24-1.02,2.24-3.06-.88-2.98-2.24-2.98-2.26.9-2.26,2.98Z"/><path d="M137.08,77.59h-3.36v-14h3.36v14Z"/><path d="M142.41,77.59h-3.36v-14h3.36v14Z"/><path d="M154.64,72.45v.6h-7.32c.1,1.54,1,2.3,2.34,2.3,1.12,0,1.78-.56,2.26-1.32l2.64,1.26c-1.04,1.64-2.7,2.58-5.08,2.58-3.48,0-5.62-2.36-5.62-5.64s2-5.64,5.42-5.64,5.36,2.24,5.36,5.86ZM147.3,71.05h3.94c-.08-1.48-.82-2.1-1.98-2.1-1.04,0-1.86.6-1.96,2.1Z"/><path d="M166.63,68.45c-.72,0-1.08.04-1.5.18.36.48.5,1.04.5,1.64,0,1.94-1.56,3.48-4.8,3.48-.8,0-1.46-.12-2.06-.32-.16.18-.28.38-.28.6,0,.44.3.7,1.34.7h1.74c3.18,0,4.7,1.36,4.7,3.26,0,2.12-1.86,3.44-5.64,3.44-4.06,0-5.28-1.16-5.28-2.72,0-.9.54-1.64,1.54-2.08-.76-.44-1.06-1.12-1.06-1.8,0-.76.54-1.5,1.36-2.02-.94-.58-1.52-1.52-1.52-2.62,0-2.02,1.62-3.6,4.92-3.6,1.18,0,2.14.24,2.88.58.7-.84,1.7-1.38,3.16-1.4v2.68ZM158.67,77.27c-.38.26-.54.56-.54.92,0,.64.44,1.02,2.38,1.02,1.68,0,2.32-.38,2.32-1.04s-.52-.9-1.82-.9h-2.34ZM159,70.13c0,.82.6,1.36,1.66,1.36s1.68-.52,1.68-1.38-.6-1.4-1.66-1.4-1.68.56-1.68,1.42Z"/><path d="M177.77,72.45v.6h-7.32c.1,1.54,1,2.3,2.34,2.3,1.12,0,1.78-.56,2.26-1.32l2.64,1.26c-1.04,1.64-2.7,2.58-5.08,2.58-3.48,0-5.62-2.36-5.62-5.64s2-5.64,5.42-5.64,5.36,2.24,5.36,5.86ZM170.43,71.05h3.94c-.08-1.48-.82-2.1-1.98-2.1-1.04,0-1.86.6-1.96,2.1Z"/><path d="M194.34,72.23c0,3.38-2.24,5.64-5.78,5.64s-5.78-2.34-5.78-5.64,2.16-5.64,5.78-5.64,5.78,2.42,5.78,5.64ZM186.29,72.19c0,2.04.84,3.06,2.26,3.06s2.24-1.02,2.24-3.06-.88-2.98-2.24-2.98-2.26.9-2.26,2.98Z"/><path d="M202.54,63.63v2.34c-.54-.16-1.24-.3-1.86-.3-.78,0-1.1.2-1.1.88v.6h2.54v2.36h-2.54v8.08h-3.36v-8.08h-1.44v-2.36h1.44v-.86c0-1.84,1.1-3.08,3.72-3.08.98,0,1.9.2,2.6.42Z"/><path d="M206.34,75.35l2.22-2.1c1.18,1.14,2.48,1.84,4.36,1.84,1.44,0,2.42-.54,2.42-1.42s-.48-1.28-3.24-1.8c-3.42-.66-5.06-1.82-5.06-4.44s2.28-4.22,5.66-4.22c2.8,0,4.76,1.04,6.06,2.5l-2.32,1.94c-.8-.86-1.88-1.56-3.68-1.56-1.38,0-2.1.46-2.1,1.26s.52,1.2,3.12,1.64c3.6.62,5.22,1.84,5.22,4.44,0,2.94-2.5,4.54-6.16,4.54-2.78,0-5-1-6.5-2.62Z"/><path d="M230.5,69.55l-2.92,1.14c-.34-.96-1.04-1.48-1.98-1.48-1.34,0-2.24.92-2.24,3s.88,3.04,2.26,3.04c1.18,0,1.76-.74,2.08-1.66l2.88,1.12c-.9,1.88-2.58,3.16-5.16,3.16-3.48,0-5.58-2.34-5.58-5.62s2.16-5.66,5.58-5.66c2.52,0,4.16,1.1,5.08,2.96Z"/><path d="M235.26,63.65c0,1.02-.9,1.82-1.92,1.82s-1.92-.8-1.92-1.82.9-1.82,1.92-1.82,1.92.8,1.92,1.82ZM235.02,77.59h-3.36v-10.7h3.36v10.7Z"/><path d="M247.2,72.45v.6h-7.32c.1,1.54,1,2.3,2.34,2.3,1.12,0,1.78-.56,2.26-1.32l2.64,1.26c-1.04,1.64-2.7,2.58-5.08,2.58-3.48,0-5.62-2.36-5.62-5.64s2-5.64,5.42-5.64,5.36,2.24,5.36,5.86ZM239.86,71.05h3.94c-.08-1.48-.82-2.1-1.98-2.1-1.04,0-1.86.6-1.96,2.1Z"/><path d="M258.78,70.61v6.98h-3.36v-6.02c0-1.46-.36-2.16-1.48-2.16s-1.92.94-1.92,2.36v5.82h-3.36v-10.7h3.22v1.44c.8-1.22,1.96-1.74,3.38-1.74,2.22,0,3.52,1.44,3.52,4.02Z"/><path d="M270.8,69.55l-2.92,1.14c-.34-.96-1.04-1.48-1.98-1.48-1.34,0-2.24.92-2.24,3s.88,3.04,2.26,3.04c1.18,0,1.76-.74,2.08-1.66l2.88,1.12c-.9,1.88-2.58,3.16-5.16,3.16-3.48,0-5.58-2.34-5.58-5.62s2.16-5.66,5.58-5.66c2.52,0,4.16,1.1,5.08,2.96Z"/><path d="M282.19,72.45v.6h-7.32c.1,1.54,1,2.3,2.34,2.3,1.12,0,1.78-.56,2.26-1.32l2.64,1.26c-1.04,1.64-2.7,2.58-5.08,2.58-3.48,0-5.62-2.36-5.62-5.64s2-5.64,5.42-5.64,5.36,2.24,5.36,5.86ZM274.84,71.05h3.94c-.08-1.48-.82-2.1-1.98-2.1-1.04,0-1.86.6-1.96,2.1Z"/></svg>