<?xml version="1.0" encoding="UTF-8"?>
<svg xmlns="http://www.w3.org/2000/svg" version="1.1" viewBox="0 0 320 320">
  <!-- Generator: Adobe Illustrator 29.5.0, SVG Export Plug-In . SVG Version: 2.1.0 Build 137)  -->
  <defs>
    <style>
      .st0 {
        fill: #d41b2c;
      }

      .st1 {
        stroke: #fff;
      }

      .st1, .st2 {
        fill: none;
        stroke-miterlimit: 10;
        stroke-width: .5px;
      }

      .st3 {
        fill: #fff;
      }

      .st2 {
        stroke: #606060;
      }

      .st4 {
        display: none;
      }

      .st5 {
        font-family: RealHeadPro-Regular, 'Real Head Pro';
        font-size: 40px;
      }
    </style>
  </defs>
  <g id="BACKGROUND">
    <rect class="st3" width="320" height="320"/>
  </g>
  <g id="ARTWORK">
    <path class="st0" d="M220.68,97.31c0-20.2,6.79-26.82,20.36-31.95v-3.31h-44.54v3.31c13.58,5.13,20.36,11.75,20.36,31.95v59.27l-94.21-90.07c-4.3-3.97-5.46-4.47-8.28-4.47h-35.43v3.31c7.78.83,12.42,2.98,23.68,13.91l4.3,4.14v67.55c0,20.2-6.79,26.82-20.36,31.95v3.31h44.54v-3.31c-13.58-5.13-20.36-11.75-20.36-31.95v-64.4l106.62,100.5h3.31v-89.74Z"/>
    <text class="st5" transform="translate(119.16 253.74)"><tspan x="0" y="0">COS</tspan></text>
  </g>
  <g id="GUIDES" class="st4">
    <circle class="st1" cx="160" cy="160" r="160"/>
    <circle class="st2" cx="160" cy="160" r="160"/>
  </g>
</svg>